<?xml version="1.0" standalone="no"?>
<!DOCTYPE svg PUBLIC "-//W3C//DTD SVG 20010904//EN"
 "http://www.w3.org/TR/2001/REC-SVG-20010904/DTD/svg10.dtd">
<svg version="1.0" xmlns="http://www.w3.org/2000/svg"
 width="500.000000pt" height="500.000000pt" viewBox="0 0 500.000000 500.000000"
 preserveAspectRatio="xMidYMid meet">
<metadata>
Created by potrace 1.11, written by Peter Selinger 2001-2013
</metadata>
<g transform="translate(0.000000,500.000000) scale(0.100000,-0.100000)"
fill="#000000" stroke="none">
<path d="M2155 2530 l0 -1800 151 0 150 0 -1 208 c-1 114 2 216 5 227 6 17 9
16 25 -15 114 -225 429 -432 725 -478 58 -9 289 -9 361 0 452 57 779 354 899
816 97 373 84 797 -33 1137 -103 296 -275 505 -532 646 -239 131 -609 155
-897 59 -221 -74 -381 -186 -502 -349 -24 -34 -46 -58 -48 -54 -2 5 -4 322 -3
706 l1 697 -151 0 -150 0 0 -1800z m1407 561 c127 -33 243 -96 335 -182 244
-229 348 -598 311 -1099 -27 -355 -207 -653 -473 -784 -140 -69 -212 -86 -386
-91 -238 -7 -427 65 -591 226 -188 185 -298 497 -300 849 -1 149 5 205 36 366
2 11 18 63 36 115 114 342 361 568 680 622 63 11 278 -3 352 -22z"/>
<path d="M1400 3373 c-175 -29 -302 -88 -404 -188 -76 -73 -116 -131 -178
-255 -26 -52 -48 -93 -49 -90 0 3 -2 111 -2 240 l-2 235 -150 3 -150 2 0
-1295 0 -1295 150 0 151 0 0 712 c1 740 5 816 45 997 89 398 348 610 757 620
l52 1 0 166 0 165 -72 -3 c-40 -1 -107 -8 -148 -15z"/>
</g>
</svg>
