<?xml version="1.0" standalone="no"?>
<!DOCTYPE svg PUBLIC "-//W3C//DTD SVG 20010904//EN"
 "http://www.w3.org/TR/2001/REC-SVG-20010904/DTD/svg10.dtd">
<svg version="1.0" xmlns="http://www.w3.org/2000/svg"
 width="500.000000pt" height="500.000000pt" viewBox="0 0 500.000000 500.000000"
 preserveAspectRatio="xMidYMid meet">
<metadata>
Created by potrace 1.11, written by Peter Selinger 2001-2013
</metadata>
<g transform="translate(0.000000,500.000000) scale(0.100000,-0.100000)"
fill="#000000" stroke="none">
<path d="M2960 4305 c-293 -50 -510 -176 -829 -483 l-66 -63 -3 235 -2 236
-200 0 -200 0 0 -1585 c0 -1261 -3 -1585 -12 -1585 -7 0 -30 5 -52 11 -21 6
-48 12 -60 15 -41 8 -132 48 -192 86 -173 108 -292 326 -320 588 -3 30 -7 64
-9 75 -2 11 -4 554 -4 1208 l-1 1187 -200 0 -201 0 4 -1247 c2 -687 6 -1264
10 -1283 4 -19 10 -53 12 -74 3 -21 7 -42 9 -45 3 -4 7 -26 11 -50 16 -108
122 -362 175 -419 9 -9 21 -25 26 -35 23 -40 144 -153 220 -203 114 -76 276
-142 389 -160 22 -3 43 -8 46 -9 29 -18 434 -27 536 -13 225 33 447 131 629
279 39 32 116 106 172 166 l102 108 0 -238 0 -237 200 0 200 0 0 1585 c0 1301
2 1585 13 1585 28 0 165 -40 221 -65 222 -98 355 -299 402 -610 12 -81 13
-168 14 -1318 l1 -1177 200 0 c152 0 199 3 200 13 0 6 1 532 1 1167 0 1014 -4
1361 -16 1427 -2 10 -7 44 -10 76 -28 239 -210 514 -443 670 -116 77 -281 138
-468 173 -107 20 -407 26 -505 9z m-13 -1267 c-1 -502 -5 -922 -9 -933 -3 -11
-9 -42 -12 -68 -49 -335 -214 -642 -434 -806 -111 -84 -269 -152 -405 -175
l-29 -5 5 952 c2 524 6 963 10 977 3 14 8 42 11 62 17 115 71 282 122 376 137
255 381 445 658 513 39 10 75 18 79 18 4 1 6 -410 4 -911z"/>
</g>
</svg>
